PathFileType	4	(X/Y/Z)	C:\Users\°ÂÌØÂü\Desktop\20210112\bx_n_5_501-Unnamed.trc
DataRate	CameraRate	NumFrames	NumMarkers	Units	OrigDataRate	OrigDataStartFrame	OrigNumFrames
50.00	50.00	       4	0	mm	50.00	259	       517
Frame#	Time	
		

259	5.160	-754.02252	105.93516	1847.57056				-597.40894	-7.62689	808.94708	-693.95502	148.85425	578.24066	-701.13855	273.40286	746.02802				-731.09637	255.06526	644.04407	-679.24774	210.86134	536.30548	-773.34973	260.23456	502.54358	-517.72528	-72.74944	143.24246	-548.71802	-24.88908	161.89719	-792.92377	39.12091	174.79880	-725.98480	-69.01996	1532.95081	-600.79834	25.49574	169.56935	-627.25433	107.57451	1360.61365	-712.92621	155.21617	217.67833	-796.48248	179.19627	184.12340	-769.40649	228.58376	204.98262	-592.79181	219.02637	174.58643	-882.47034	296.07187	144.68552	-556.51904	255.64360	164.30447	-660.80267	298.99722	156.47533	-624.39905	306.84113	158.47044	-527.99969	304.70288	146.98460	-674.67920	52.06767	161.19002				-766.11072	-40.53923	490.49661	-760.62372	-19.94184	207.82849	-875.87335	-78.57735	141.34627	-678.47150	-66.16339	877.06854	-716.68048	-31.87329	618.24927	-723.22943	-30.12839	571.12970	-675.93640	173.85506	159.41624	-606.51636	-74.91389	156.78712	-649.73718	-69.27122	160.19118	-697.60162	-56.17011	761.66174	-719.03400	68.25644	216.85239	-717.11493	293.61874	1540.50110	-812.94714	105.54227	1055.30249	-693.62134	288.29578	875.10748	-595.61041	229.20308	796.17578	-671.08905	15.02109	521.35382	-733.87183	251.22028	576.84961	-694.58136	75.10502	573.14819	
260	5.180	-756.67023	105.64452	1847.27161				-596.94958	-7.94952	808.79675	-693.44885	148.53654	578.06042	-700.66290	273.11618	746.03381				-731.00806	254.80280	643.88458	-678.96942	210.37204	536.09802	-773.03131	259.80798	502.51608	-517.61383	-72.88353	143.21956	-548.71802	-24.88908	161.89719	-792.88745	39.12748	174.62381	-727.20221	-69.69300	1533.09241	-600.79138	25.54207	169.71577	-627.37524	106.87502	1361.08826	-712.85065	154.99120	217.90137	-796.48248	179.19627	184.12340	-769.34705	228.56744	205.09683	-592.83295	218.97598	174.58623	-882.44165	296.28186	144.84575	-556.46588	255.55141	164.32558	-660.94043	299.12082	156.68503	-624.39905	306.84113	158.47044	-527.91217	304.55008	146.94724	-674.49878	51.72395	161.32634				-766.03479	-40.89695	490.57532	-760.79633	-20.14661	207.82208	-875.95648	-78.79716	141.44162	-677.95520	-67.01264	876.97577	-716.25531	-32.27875	618.13489	-723.16235	-30.41956	571.12457	-676.05865	173.89282	159.27052	-606.44226	-74.84346	156.88678	-649.66156	-69.15888	160.36861	-697.36035	-56.75737	761.69574	-719.15613	68.14972	216.82312	-718.76251	292.64044	1540.34412	-812.41290	104.71490	1055.35864	-692.55731	288.25235	875.82764	-594.82159	228.12404	796.12830	-670.98236	14.88096	521.44446	-733.31812	251.07838	577.34772	-694.75220	74.74683	573.10278	
261	5.200	-759.06689	105.54581	1847.19983				-596.79572	-8.39831	808.29596	-693.39038	148.45418	577.84351	-700.18384	272.58771	745.99304				-730.47638	254.65985	644.34790	-678.82159	209.89746	535.78638	-772.75818	259.70654	502.66647	-517.74384	-72.95615	143.26073	-548.71802	-24.88908	161.89719	-792.93738	39.05651	174.83479	-728.64520	-70.28065	1532.70508	-600.63544	25.66800	169.54330	-627.50079	106.14153	1361.48206	-712.89722	154.89279	217.71228	-796.46838	179.03615	183.97020	-769.05682	228.39510	204.77441	-592.89801	218.96390	174.49269	-882.42505	296.15695	144.76091	-556.56067	255.56937	164.28439	-660.87567	298.77213	156.81848	-624.35400	306.70959	158.45297	-528.09491	304.64404	146.89276	-674.63428	51.74640	161.02289				-766.00543	-41.17924	490.55231	-760.93311	-20.05877	207.43144	-876.00275	-78.74174	141.50209	-677.79303	-67.69548	877.07227	-716.10504	-33.25928	618.48450	-723.24377	-30.86420	571.27167	-675.90814	173.72942	159.17633	-606.61896	-74.85195	156.71823	-649.66156	-69.15888	160.36861	-697.06915	-57.24229	761.56830	-719.33807	68.09370	216.93777	-719.77246	292.08105	1540.28491	-811.65540	104.04564	1055.29602	-692.04633	287.26462	875.43152	-594.73395	227.65468	795.88269	-670.64081	14.35494	521.74231	-733.23584	250.90114	577.40131	-694.41626	74.07099	573.45374	
262	5.220	-761.23914	105.44631	1846.92529				-596.50995	-8.73619	808.27911	-693.51306	148.23384	577.40564	-699.78528	272.15302	745.79138				-730.21539	254.21754	644.48627	-678.73486	209.86095	535.81091	-772.68365	259.78775	502.74963	-517.74384	-72.95615	143.26073	-548.85632	-24.92194	162.05492	-792.92169	39.00204	174.81270	-729.49707	-71.01601	1532.64014	-600.89001	25.34434	169.67531	-627.89532	105.41950	1361.42590	-713.00446	154.76541	217.57487	-796.46661	178.98100	184.02328	-769.11536	228.41270	204.89284	-592.94391	218.87216	174.39934	-882.57965	296.26184	144.78772	-556.60376	255.46304	164.32906	-660.95483	298.75885	156.88748	-624.28845	306.62955	158.54045	-527.95721	304.59146	146.92218	-674.72876	51.67650	161.47351				-765.84692	-41.53654	490.40091	-761.05957	-20.25420	207.45876	-876.00275	-78.74174	141.50209	-677.12793	-68.12957	876.90070	-716.28204	-33.49761	618.26715	-723.24438	-31.14275	571.06293	-676.05072	173.80003	159.12354	-606.45831	-74.90302	156.82439	-649.74780	-69.43100	160.29607	-696.64996	-57.67323	761.32336	-719.05927	67.81487	217.03357	-720.35461	291.65173	1540.18323	-810.97748	103.21900	1055.22839	-691.78143	286.65952	875.35278	-594.31995	227.27112	795.98846	-670.97260	14.04843	521.46069	-733.05585	250.55252	577.18756	-694.45398	73.88910	573.30188	
